<svg xmlns="http://www.w3.org/2000/svg" width="1200" height="286" viewBox="0 0 1200 286" role="img" aria-labelledby="title desc">
  <title id="title">Hart's technology toolbox</title>
  <desc id="desc">A scan-friendly capability matrix covering languages, interfaces, and systems and AI tools.</desc>
  <rect width="1200" height="286" rx="14" fill="#090D0C"/>
  <rect x="1" y="1" width="1198" height="284" rx="13" fill="none" stroke="#3A4743"/>
  <g font-family="ui-monospace,SFMono-Regular,Consolas,monospace">
    <text x="42" y="43" fill="#F0B45A" font-size="11" font-weight="700" letter-spacing="1.8">03 / TOOLBOX</text>
    <text x="1158" y="43" text-anchor="end" fill="#71807B" font-size="10" letter-spacing="1.3">CAPABILITY MAP / 19 TOOLS</text>
    <line x1="42" y1="58" x2="1158" y2="58" stroke="#46534F"/>

    <line x1="402" y1="82" x2="402" y2="246" stroke="#34403C"/>
    <line x1="800" y1="82" x2="800" y2="246" stroke="#34403C"/>

    <g transform="translate(42 92)">
      <text fill="#5ECFC0" font-size="11" font-weight="700" letter-spacing="1.5">01 / LANGUAGES</text>
      <line y1="17" x2="320" y2="17" stroke="#2E625C"/>
      <g fill="#E6E1D7" font-family="Inter,Segoe UI,Arial,sans-serif" font-size="15" font-weight="600">
        <text y="54">TypeScript</text><text x="178" y="54">Python</text>
        <text y="88">JavaScript</text><text x="178" y="88">C++</text>
        <text y="122">Java</text><text x="178" y="122">C#</text>
        <text y="156">Solidity</text>
      </g>
    </g>

    <g transform="translate(442 92)">
      <text fill="#5ECFC0" font-size="11" font-weight="700" letter-spacing="1.5">02 / INTERFACE</text>
      <line y1="17" x2="318" y2="17" stroke="#2E625C"/>
      <g fill="#E6E1D7" font-family="Inter,Segoe UI,Arial,sans-serif" font-size="15" font-weight="600">
        <text y="54">React</text><text x="174" y="54">Vue 3</text>
        <text y="88">Vite</text><text x="174" y="88">WebSocket</text>
        <text y="122">Node.js</text><text x="174" y="122">Real-time UI</text>
        <text y="156">Design Systems</text>
      </g>
    </g>

    <g transform="translate(840 92)">
      <text fill="#5ECFC0" font-size="11" font-weight="700" letter-spacing="1.5">03 / SYSTEMS &amp; AI</text>
      <line y1="17" x2="318" y2="17" stroke="#2E625C"/>
      <g fill="#E6E1D7" font-family="Inter,Segoe UI,Arial,sans-serif" font-size="15" font-weight="600">
        <text y="54">MCP</text><text x="166" y="54">.NET</text>
        <text y="88">Docker</text><text x="166" y="88">PyTorch</text>
        <text y="122">Spring Boot</text><text x="166" y="122">CoreCLR</text>
        <text y="156">Hyperledger Fabric</text>
      </g>
    </g>
  </g>
</svg>
